<?xml version="1.0" encoding="utf-8"?>
<!-- Generator: Adobe Illustrator 25.0.1, SVG Export Plug-In . SVG Version: 6.00 Build 0)  -->
<svg version="1.0" id="katman_1" xmlns="http://www.w3.org/2000/svg" xmlns:xlink="http://www.w3.org/1999/xlink" x="0px" y="0px"
	 viewBox="0 0 595.2 408.6" style="enable-background:new 0 0 595.2 408.6;" xml:space="preserve">
<path d="M310.2,188.4c0.2,5.7-2,11.1-6,15.1c-5.3,5.3-13.9,8.1-24.3,8.1c-7.4-0.1-15-1.9-19.2-4.5l2.8-14.9
	c5.6,3.1,11.9,4.8,18.2,5.1c4.8,0,8.1-2.2,8.1-5.8c0-3.2-2.3-5.5-8.1-8.4c-9.3-4.6-13.9-10.5-13.9-17.4c0-13.6,11.6-22.8,29-22.8
	c9.2,0,15.2,2.2,18.5,4.3l-2.8,14.9c-5-3.1-10.8-4.8-16.6-4.8c-5.1,0-8.4,2.1-8.4,5.7c0,2.5,2.5,4.8,7.9,7.4
	C302.3,173.9,310.1,179.1,310.2,188.4L310.2,188.4z M189.6,143c-24.5,0-43,17.9-43,41.6c0,16.4,10.9,27,27.8,27
	c6.4,0.2,12.8-1,18.8-3.5l3.1-16.3c-5,2.7-10.6,4.2-16.4,4.2c-6.2,0-12.8-3.5-12.8-13.5c0-11.7,8.3-23.8,22.2-23.8
	c3.8-0.1,7.5,0.8,10.8,2.6l3-15.9C198.7,143.8,194.2,143,189.6,143z M533.1,196.4c8.1,0,16.1-2.2,23-6.5l-3.1,16.4
	c-9.3,4.8-20.3,5.3-24.5,5.3c-18.2,0-28.6-10.1-28.6-27.8c0-10.2,3.7-20.2,10.3-28c7-8.3,17.3-13,28.1-13c13.8,0,22.9,8,22.9,19.8
	c0.2,5-1.7,9.9-5.3,13.4c-6.6,6.4-22.8,10-37.5,7.1C517.6,191.5,523.9,196.3,533.1,196.4L533.1,196.4z M520.4,170.6
	c11.5,0.1,17.9-1.1,20.7-3.9c3-3,2.1-9.5-5.4-9.5C527.3,157.2,522,164.1,520.4,170.6L520.4,170.6z M489.9,143
	c-24.5,0-43,17.9-43,41.6c0,16.4,10.9,27,27.8,27c6.4,0.2,12.8-1,18.8-3.5l3.1-16.4c-5,2.7-10.6,4.2-16.3,4.2
	c-6.2,0-12.8-3.5-12.8-13.5c0-11.7,8.3-23.8,22.2-23.8c3.8-0.1,7.5,0.8,10.8,2.6l3-15.9C499.1,143.8,494.5,143,489.9,143L489.9,143z
	 M443.7,173.4l-7,36.9H418l2.4-12.7c-2.5,8.7-10.7,14.6-19.7,14.2c-13,0-18.9-11.5-18.9-23.1c-0.1-12.9,4.9-25.4,13.8-34.7
	c7.1-7.2,16.9-11.1,27-11c7.9,0,13.8,2.3,17.5,6.8C445.6,156.3,445.1,166.2,443.7,173.4L443.7,173.4z M425.7,164.9
	c-0.2-4.6-2.7-7.2-7-7.2c-9.2,0-17.2,15.9-17.2,26.9c0,6.9,2.6,11.2,7,11.2c7.1,0,13.2-7.4,15.3-18.3
	C424.9,173.4,425.5,169.1,425.7,164.9L425.7,164.9z M143.4,173.4l-7,36.9h-18.7l2.4-12.7c-2.5,8.7-10.7,14.6-19.7,14.2
	c-13,0-18.9-11.5-18.9-23.1c-0.1-12.9,4.9-25.4,13.8-34.7c7.1-7.2,16.9-11.1,27-11c7.9,0,13.8,2.3,17.5,6.8
	C145.3,156.3,144.8,166.2,143.4,173.4L143.4,173.4z M125.4,164.9c-0.2-4.6-2.6-7.2-7-7.2c-9.2,0-17.2,15.9-17.1,26.9
	c0,6.9,2.6,11.2,7,11.2c7.1,0,13.2-7.4,15.3-18.3C124.6,173.4,125.2,169.1,125.4,164.9L125.4,164.9z M380.6,168
	c0,16-7.7,32.5-21.6,39.8c-4.4,2.4-9.2,3.8-14.2,3.9c-6.9,0-10.8-2.6-13.1-6.6l-5,26.2h-19.5l16.6-87.3h17.2l-2,10.6
	c4.9-7.1,12.1-11.8,20.2-11.8C372.2,142.9,380.6,152.7,380.6,168L380.6,168z M360.2,169.5c0-3.1-0.7-10.6-7.9-10.6
	s-13.4,8.3-15.8,20.9c-0.8,4.3-3.1,17.2,5.9,17.2C352.7,196.9,360.3,182.4,360.2,169.5L360.2,169.5z M61.2,158.8l2.8-14.7H46.8
	L34,211.4h19.6l5.3-27.8c3.1-16.4,12.5-22.9,25.9-20.9l3.8-20.1C76.9,141.6,65.9,148.1,61.2,158.8L61.2,158.8z M218,210.3l6.7-35.4
	l13.8,35.4h21l-14.3-35.7l26.1-30.5h-21.3l-25.2,30.1l9.7-51.2h-19.4l-16.6,87.3H218z M443,256.6c0,9.5-6.6,17.7-16.1,17.7
	c-6,0.3-11.1-4.3-11.4-10.3c0-0.4,0-0.8,0-1.2c0-9.5,6.6-17.7,16.1-17.7C439,245,442.9,250.4,443,256.6L443,256.6z M422.3,262.6
	c0,3.8,2,6.5,5.5,6.5c5,0,8.3-6.9,8.3-12.5c0-2.9-1.3-6.4-5.3-6.4C425.4,250.2,422.3,257.3,422.3,262.6L422.3,262.6z M488.4,256.6
	c0,9.5-6.6,17.7-16.1,17.7c-6,0.3-11.1-4.3-11.4-10.3c0-0.4,0-0.8,0-1.2c0-9.5,6.6-17.7,16.1-17.7
	C484.5,245,488.4,250.4,488.4,256.6L488.4,256.6z M467.8,262.6c0,3.8,2,6.5,5.5,6.5c5,0,8.3-6.9,8.3-12.5c0-2.9-1.3-6.4-5.3-6.4
	C470.9,250.2,467.8,257.4,467.8,262.6L467.8,262.6z M453,236.6l-7.1,37.1h6.7l7.1-37.1H453z M345.2,245.2
	c-9.7-0.1-17.7,7.8-17.7,17.5c0,0,0,0,0,0c0,0.2,0,0.3,0,0.5c0,6.7,4.3,11.1,11.3,11.1c2.8,0.1,5.7-0.5,8.2-1.7l1.1-5.8
	c-2.3,1.3-4.9,2.1-7.5,2.1c-3.7,0-6.1-2.4-6.1-6.5c0-5.9,4.1-11.8,10.5-11.8c1.8,0,3.6,0.4,5.2,1.3l1.1-5.6
	C349.3,245.5,347.2,245.1,345.2,245.2L345.2,245.2z M307,266.2c-0.6-1.2-0.9-2.6-0.8-4c10.8,0.2,18.3-2.1,18.3-9.2
	c0-4.7-3.5-7.9-9-7.9c-9.6,0-15.8,9.2-15.8,17.6c0,6.8,3.7,11.6,11.5,11.6c3.7,0,7.3-0.9,10.6-2.6l1.1-6c-2.9,2.2-6.5,3.4-10.2,3.4
	C310.5,269.2,308.3,268.1,307,266.2L307,266.2z M314.7,250.1c2.1,0,3.6,1.1,3.6,2.9c0,3.4-4.4,4.3-11.3,4.2
	C307.8,253.7,310.5,250,314.7,250.1L314.7,250.1z M410.8,252.8c0-5.3-3.1-7.7-7.1-7.7c-4.2,0.1-8.1,2.3-10.2,5.9l1-5.4h-6l-5.3,28.1
	h6.7l2.5-12.9c1.2-6.5,5-10.2,8.1-10.2c2.6,0,3.5,1.7,3.5,4c0,1.1-0.1,2.2-0.3,3.3l-3,15.8h6.7l3.1-16.3
	C410.6,255.8,410.8,254.3,410.8,252.8L410.8,252.8z M372.1,245.1c-3.6,0-7.1,1.7-9.3,4.6l2.5-13.1h-6.7l-7.1,37.1h6.7l2.5-12.9
	c1.2-6.5,5-10.2,8.1-10.2c2.6,0,3.5,1.7,3.5,4c0,1.1-0.1,2.2-0.3,3.3l-3,15.8h6.7l3.1-16.3c0.3-1.5,0.5-3.1,0.5-4.6
	C379.2,247.5,376.1,245.1,372.1,245.1L372.1,245.1z M294.5,238.5H288l-1.4,7.1h-3.7l-1,5.2h3.7l-2.4,12.5c-0.4,1.7-0.6,3.4-0.6,5.2
	c0,3.2,2,5.7,6.6,5.7c1.5,0.1,2.9-0.1,4.4-0.6l0,0l1-5.3c-0.9,0.2-1.8,0.3-2.7,0.2c-1.2,0.2-2.3-0.7-2.5-1.9c0-0.2,0-0.4,0-0.6
	c0-1.3,0.2-2.7,0.5-4l2.2-11.2h6.3l1-5.2h-6.3L294.5,238.5z M519.1,284.1c5.1,2.4,10.2,1.3,13.8-5.2l0,0l18.7-33.4h-7.1l-10.6,20.8
	l-2.6-20.8h-7l5,27.4l-2.2,4.4c-2,3.3-5.4,2.3-7,1.4L519.1,284.1z M510,245.1c-11.9,0-18,10.5-18,19.3c0,5,2.5,9.9,8.4,9.9
	c3.7,0,7.2-1.9,9.3-5l-0.5,2.5c-1.4,6.5-4.7,8.5-9.1,8.5c-2.5,0-5.1-0.5-7.3-1.7l-1,5.5c2.6,1.1,5.4,1.6,8.2,1.5
	c3.7,0.2,7.4-0.9,10.4-3.1c3.2-2.6,4.8-7,5.8-12.5l2.5-12.7c0.4-1.6,0.5-3.2,0.6-4.8C519.3,247.6,515.8,245.1,510,245.1L510,245.1z
	 M512.1,257.1l-0.5,2.5c-1.2,5.6-4.7,9.2-8.2,9.2c-3.1,0-4.4-2.6-4.4-5.6c0-5.5,3.8-13,9.7-13c1.8-0.2,3.5,1.1,3.7,2.9
	c0,0.2,0,0.4,0,0.6c0,1.1-0.1,2.2-0.4,3.3L512.1,257.1z"/>
</svg>
